<?xml version="1.0" encoding="UTF-8" standalone="no"?>
<!-- Created with Inkscape (http://www.inkscape.org/) -->

<svg
   xmlns:dc="http://purl.org/dc/elements/1.1/"
   xmlns:cc="http://creativecommons.org/ns#"
   xmlns:rdf="http://www.w3.org/1999/02/22-rdf-syntax-ns#"
   xmlns:svg="http://www.w3.org/2000/svg"
   xmlns="http://www.w3.org/2000/svg"
   xmlns:sodipodi="http://sodipodi.sourceforge.net/DTD/sodipodi-0.dtd"
   xmlns:inkscape="http://www.inkscape.org/namespaces/inkscape"
   width="300"
   height="100"
   viewBox="0 0 79.374998 26.458334"
   version="1.1"
   id="svg8"
   inkscape:version="0.92.4 5da689c313, 2019-01-14"
   sodipodi:docname="monitor.svg">
  <defs
     id="defs2" />
  <sodipodi:namedview
     id="base"
     pagecolor="#ffffff"
     bordercolor="#666666"
     borderopacity="1.0"
     inkscape:pageopacity="0.0"
     inkscape:pageshadow="2"
     inkscape:zoom="2.8"
     inkscape:cx="152.00062"
     inkscape:cy="42.386361"
     inkscape:document-units="mm"
     inkscape:current-layer="layer1"
     showgrid="false"
     units="px"
     inkscape:window-width="1680"
     inkscape:window-height="982"
     inkscape:window-x="0"
     inkscape:window-y="0"
     inkscape:window-maximized="1"
     showguides="false">
    <sodipodi:guide
       position="-21.450148,28.442709"
       orientation="1,0"
       id="guide951"
       inkscape:locked="false" />
  </sodipodi:namedview>
  <metadata
     id="metadata5">
    <rdf:RDF>
      <cc:Work
         rdf:about="">
        <dc:format>image/svg+xml</dc:format>
        <dc:type
           rdf:resource="http://purl.org/dc/dcmitype/StillImage" />
        <dc:title></dc:title>
      </cc:Work>
    </rdf:RDF>
  </metadata>
  <g
     inkscape:label="background"
     inkscape:groupmode="layer"
     id="layer1"
     transform="translate(0,-270.54165)">
    <rect
       style="color:#000000;clip-rule:nonzero;display:inline;overflow:visible;visibility:visible;opacity:1;isolation:auto;mix-blend-mode:normal;color-interpolation:sRGB;color-interpolation-filters:linearRGB;solid-color:#000000;solid-opacity:1;fill:#00222b;fill-opacity:1;fill-rule:evenodd;stroke:none;stroke-width:1.21699989;stroke-linecap:butt;stroke-linejoin:miter;stroke-miterlimit:4;stroke-dasharray:none;stroke-dashoffset:0;stroke-opacity:1;marker:none;color-rendering:auto;image-rendering:auto;shape-rendering:auto;text-rendering:auto;enable-background:accumulate"
       id="rect834"
       width="79.375"
       height="26.458334"
       x="0"
       y="270.54166" />
    <path
       style="fill:none;fill-opacity:0.75;fill-rule:evenodd;stroke:#006680;stroke-width:0.26458332;stroke-linecap:butt;stroke-linejoin:miter;stroke-miterlimit:4;stroke-dasharray:none;stroke-opacity:1"
       d="M 0,275.70105 H 79.375"
       id="path855"
       inkscape:connector-curvature="0" />
    <path
       style="fill:none;fill-opacity:0.75;fill-rule:evenodd;stroke:#006680;stroke-width:0.26458332;stroke-linecap:butt;stroke-linejoin:miter;stroke-miterlimit:4;stroke-dasharray:none;stroke-opacity:1"
       d="M 0,280.99269 H 79.375"
       id="path855-8"
       inkscape:connector-curvature="0" />
    <path
       style="fill:none;fill-opacity:0.75;fill-rule:evenodd;stroke:#006680;stroke-width:0.26458332;stroke-linecap:butt;stroke-linejoin:miter;stroke-miterlimit:4;stroke-dasharray:none;stroke-opacity:1"
       d="M 0,286.28436 H 79.375"
       id="path855-2"
       inkscape:connector-curvature="0" />
    <path
       style="fill:none;fill-opacity:0.75;fill-rule:evenodd;stroke:#006680;stroke-width:0.26458332;stroke-linecap:butt;stroke-linejoin:miter;stroke-miterlimit:4;stroke-dasharray:none;stroke-opacity:1"
       d="M 0,291.57603 H 79.375"
       id="path855-5"
       inkscape:connector-curvature="0" />
    <path
       style="fill:none;fill-opacity:0.75;fill-rule:evenodd;stroke:#004455;stroke-width:0.26458332;stroke-linecap:butt;stroke-linejoin:miter;stroke-miterlimit:4;stroke-dasharray:none;stroke-opacity:1"
       d="M 0,273.05519 H 79.375"
       id="path855-7"
       inkscape:connector-curvature="0" />
    <path
       style="fill:none;fill-opacity:0.75;fill-rule:evenodd;stroke:#004455;stroke-width:0.26458332;stroke-linecap:butt;stroke-linejoin:miter;stroke-miterlimit:4;stroke-dasharray:none;stroke-opacity:1"
       d="M 0,278.34686 H 79.375"
       id="path855-7-0"
       inkscape:connector-curvature="0" />
    <path
       style="fill:none;fill-opacity:0.75;fill-rule:evenodd;stroke:#004455;stroke-width:0.26458332;stroke-linecap:butt;stroke-linejoin:miter;stroke-miterlimit:4;stroke-dasharray:none;stroke-opacity:1"
       d="M 0,283.63853 H 79.375"
       id="path855-7-6"
       inkscape:connector-curvature="0" />
    <path
       style="fill:none;fill-opacity:0.75;fill-rule:evenodd;stroke:#004455;stroke-width:0.26458332;stroke-linecap:butt;stroke-linejoin:miter;stroke-miterlimit:4;stroke-dasharray:none;stroke-opacity:1"
       d="M 0,288.93019 H 79.375"
       id="path855-7-8"
       inkscape:connector-curvature="0" />
    <path
       style="fill:none;fill-opacity:0.75;fill-rule:evenodd;stroke:#004455;stroke-width:0.26458332;stroke-linecap:butt;stroke-linejoin:miter;stroke-miterlimit:4;stroke-dasharray:none;stroke-opacity:1"
       d="M 0,294.22186 H 79.375"
       id="path855-7-2"
       inkscape:connector-curvature="0" />
    <path
       style="fill:none;fill-opacity:0.75;fill-rule:evenodd;stroke:#004455;stroke-width:0.26458332;stroke-linecap:butt;stroke-linejoin:miter;stroke-miterlimit:4;stroke-dasharray:none;stroke-opacity:1"
       d="M 2.778125,296.99998 V 270.54165"
       id="path855-7-0-0"
       inkscape:connector-curvature="0" />
    <path
       style="fill:none;fill-opacity:0.75;fill-rule:evenodd;stroke:#004455;stroke-width:0.26458332;stroke-linecap:butt;stroke-linejoin:miter;stroke-miterlimit:4;stroke-dasharray:none;stroke-opacity:1"
       d="M 8.1138448,296.99998 V 270.54165"
       id="path855-7-0-0-2"
       inkscape:connector-curvature="0" />
    <path
       style="fill:none;fill-opacity:0.75;fill-rule:evenodd;stroke:#004455;stroke-width:0.26458332;stroke-linecap:butt;stroke-linejoin:miter;stroke-miterlimit:4;stroke-dasharray:none;stroke-opacity:1"
       d="M 13.405512,296.99998 V 270.54165"
       id="path855-7-0-0-6"
       inkscape:connector-curvature="0" />
    <path
       style="fill:none;fill-opacity:0.75;fill-rule:evenodd;stroke:#004455;stroke-width:0.26458332;stroke-linecap:butt;stroke-linejoin:miter;stroke-miterlimit:4;stroke-dasharray:none;stroke-opacity:1"
       d="M 18.697178,296.99998 V 270.54165"
       id="path855-7-0-0-9"
       inkscape:connector-curvature="0" />
    <path
       style="fill:none;fill-opacity:0.75;fill-rule:evenodd;stroke:#004455;stroke-width:0.26458332;stroke-linecap:butt;stroke-linejoin:miter;stroke-miterlimit:4;stroke-dasharray:none;stroke-opacity:1"
       d="M 23.988845,296.99998 V 270.54165"
       id="path855-7-0-0-3"
       inkscape:connector-curvature="0" />
    <path
       style="fill:none;fill-opacity:0.75;fill-rule:evenodd;stroke:#004455;stroke-width:0.26458332;stroke-linecap:butt;stroke-linejoin:miter;stroke-miterlimit:4;stroke-dasharray:none;stroke-opacity:1"
       d="M 29.280512,296.99998 V 270.54165"
       id="path855-7-0-0-0"
       inkscape:connector-curvature="0" />
    <path
       style="fill:none;fill-opacity:0.75;fill-rule:evenodd;stroke:#004455;stroke-width:0.26458332;stroke-linecap:butt;stroke-linejoin:miter;stroke-miterlimit:4;stroke-dasharray:none;stroke-opacity:1"
       d="M 34.572178,296.99998 V 270.54165"
       id="path855-7-0-0-8"
       inkscape:connector-curvature="0" />
    <path
       style="fill:none;fill-opacity:0.75;fill-rule:evenodd;stroke:#004455;stroke-width:0.26458332;stroke-linecap:butt;stroke-linejoin:miter;stroke-miterlimit:4;stroke-dasharray:none;stroke-opacity:1"
       d="M 39.863845,296.99998 V 270.54165"
       id="path855-7-0-0-7"
       inkscape:connector-curvature="0" />
    <path
       style="fill:none;fill-opacity:0.75;fill-rule:evenodd;stroke:#004455;stroke-width:0.26458332;stroke-linecap:butt;stroke-linejoin:miter;stroke-miterlimit:4;stroke-dasharray:none;stroke-opacity:1"
       d="M 45.155512,296.99998 V 270.54165"
       id="path855-7-0-0-65"
       inkscape:connector-curvature="0" />
    <path
       style="fill:none;fill-opacity:0.75;fill-rule:evenodd;stroke:#004455;stroke-width:0.26458332;stroke-linecap:butt;stroke-linejoin:miter;stroke-miterlimit:4;stroke-dasharray:none;stroke-opacity:1"
       d="M 50.447178,296.99998 V 270.54165"
       id="path855-7-0-0-24"
       inkscape:connector-curvature="0" />
    <path
       style="fill:none;fill-opacity:0.75;fill-rule:evenodd;stroke:#004455;stroke-width:0.26458332;stroke-linecap:butt;stroke-linejoin:miter;stroke-miterlimit:4;stroke-dasharray:none;stroke-opacity:1"
       d="M 55.738845,296.99998 V 270.54165"
       id="path855-7-0-0-00"
       inkscape:connector-curvature="0" />
    <path
       style="fill:none;fill-opacity:0.75;fill-rule:evenodd;stroke:#004455;stroke-width:0.26458332;stroke-linecap:butt;stroke-linejoin:miter;stroke-miterlimit:4;stroke-dasharray:none;stroke-opacity:1"
       d="M 61.030512,296.99998 V 270.54165"
       id="path855-7-0-0-68"
       inkscape:connector-curvature="0" />
    <path
       style="fill:none;fill-opacity:0.75;fill-rule:evenodd;stroke:#004455;stroke-width:0.26458332;stroke-linecap:butt;stroke-linejoin:miter;stroke-miterlimit:4;stroke-dasharray:none;stroke-opacity:1"
       d="M 66.322178,296.99998 V 270.54165"
       id="path855-7-0-0-5"
       inkscape:connector-curvature="0" />
    <path
       style="fill:none;fill-opacity:0.75;fill-rule:evenodd;stroke:#004455;stroke-width:0.26458332;stroke-linecap:butt;stroke-linejoin:miter;stroke-miterlimit:4;stroke-dasharray:none;stroke-opacity:1"
       d="M 71.613845,296.99998 V 270.54165"
       id="path855-7-0-0-4"
       inkscape:connector-curvature="0" />
    <path
       style="fill:none;fill-opacity:0.75;fill-rule:evenodd;stroke:#004455;stroke-width:0.26458332;stroke-linecap:butt;stroke-linejoin:miter;stroke-miterlimit:4;stroke-dasharray:none;stroke-opacity:1"
       d="M 76.861458,296.99998 V 270.54165"
       id="path855-7-0-0-4-9"
       inkscape:connector-curvature="0" />
  </g>
  <g
     inkscape:groupmode="layer"
     id="layer2"
     inkscape:label="line"
     sodipodi:insensitive="true">
    <path
       style="fill:none;fill-opacity:0.75;fill-rule:evenodd;stroke:#ffff00;stroke-width:0.26458332;stroke-linecap:butt;stroke-linejoin:miter;stroke-miterlimit:4;stroke-dasharray:none;stroke-opacity:1"
       d="m 0,5.159375 c 0,0 3.9635774,-0.00197 5.1026786,0 1.1391012,0.00197 1.6189209,-3.2007822 2.4568452,-3.2127977 0.8379242,-0.012015 1.8978255,4.5728283 2.3850134,4.6074361 0.4871878,0.034608 1.3316978,-2.0479279 1.8461098,-2.0382159 0.514412,0.00971 1.611264,3.1585205 2.193709,3.2018108 0.582445,0.04329 1.445793,-1.8809536 2.124678,-1.8425433 0.678885,0.03841 0.900652,2.1730823 1.599106,2.1183181 0.698454,-0.054764 1.333795,-4.1578369 2.087698,-4.0862121 0.753903,0.071625 0.517985,1.8896714 1.22609,1.9162502 0.708105,0.026579 0.772894,-3.2774473 1.513282,-3.2392784 0.740388,0.038169 0.484444,2.690552 1.416102,2.7075239 0.931658,0.016972 13.0723,-0.00262 14.109983,0 1.037683,0.00262 0.969265,-2.273833 1.532269,-2.245042 0.563004,0.028791 1.367572,3.4837046 1.895342,3.4998337 0.52777,0.016129 1.008139,-1.9055515 1.551942,-1.9009121 0.543803,0.00464 1.018595,2.2941541 1.607608,2.3453421 0.589013,0.051188 0.874689,-1.9634218 1.521331,-1.9720618 0.646642,-0.00864 0.809926,1.9521917 1.408061,1.9418935 0.598135,-0.010298 0.773407,-3.1902412 1.380956,-3.1979295 0.607549,-0.00769 0.998123,1.3104769 1.530484,1.3673377 0.532361,0.056861 0.877281,-2.6196979 1.484282,-2.533515 0.607001,0.086183 0.745865,2.12708 1.427386,2.0599182 0.681521,-0.067162 0.767364,-1.2893755 1.33908,-1.2790016 0.571716,0.010374 0.714946,2.7249514 1.369266,2.7539455 0.65432,0.028994 0.395817,-1.5252032 1.267401,-1.5372333 0.871584,-0.01203 0.773498,1.8362022 1.491789,1.8655109 0.718291,0.029309 0.37142,-2.4965841 1.104045,-2.4914963 0.732625,0.00509 0.516093,1.2803875 1.349437,1.228916 C 62.155318,5.1457012 79.375,5.1593743 79.375,5.1593743"
       id="path855-7-6-2"
       inkscape:connector-curvature="0"
       sodipodi:nodetypes="czzzzzzzzzzzzzzzzzzzzzzzzzzzzc" />
    <path
       style="fill:none;fill-opacity:0.75;fill-rule:evenodd;stroke:#ff0000;stroke-width:0.26458332;stroke-linecap:butt;stroke-linejoin:miter;stroke-miterlimit:4;stroke-dasharray:none;stroke-opacity:1"
       d="m 0,18.388542 h 3.874256 v -2.62221 l 4.9849269,-0.01876 -0.00185,-5.288814 3.0036061,-0.01006 0.02317,2.617453 5.85283,0.03023 0.02448,7.940012 1.219052,-9.78e-4 -0.0069,2.732156 5.00834,-0.0701 -0.01404,-5.231158 3.661083,-0.0053 -8e-6,-2.710808 12.625944,-0.0058 0.03437,-5.33597 1.866921,0.03624 -0.02083,2.650506 1.702678,-1.95e-4 -0.05224,5.315168 1.750269,0.03076 -0.03331,5.207852 4.500113,0.01897 0.0052,-10.55953 0.910535,-0.02941 -0.03005,-2.617156 2.119636,-0.01819 0.08883,10.610211 1.938345,-0.02636 -0.04598,-5.301878 3.190511,0.04208 0.120226,7.907368 2.683117,-8.9e-5 -0.179725,-10.547202 2.066343,-0.02104 0.09816,7.952872 2.418544,0.0069 -0.0879,-5.318426 1.678883,-0.02868 0.02611,2.669373 7.930134,0 H 79.375"
       id="path855-7-6-0"
       inkscape:connector-curvature="0"
       sodipodi:nodetypes="ccccccccccccccccccccccccccccccccccccccccccc" />
  </g>
</svg>
